<svg xmlns="http://www.w3.org/2000/svg" xmlns:xlink="http://www.w3.org/1999/xlink" viewBox="0 0 500 500"><defs><clipPath id="freepik--clip-path--inject-109"><path d="M324.82,346.89,137.35,324.27a12.09,12.09,0,0,1-10.52-13.41l23.91-198.11a12.09,12.09,0,0,1,13.41-10.52l187.47,22.63a12.08,12.08,0,0,1,10.52,13.41l-23.91,198.1A12.08,12.08,0,0,1,324.82,346.89Z" style="fill:none"></path></clipPath></defs><g id="freepik--background-complete--inject-109"><rect y="382.4" width="500" height="0.25" style="fill:#ebebeb"></rect><rect x="396.83" y="398.49" width="53.07" height="0.25" style="fill:#ebebeb"></rect><rect x="272.56" y="395.36" width="58.66" height="0.25" style="fill:#ebebeb"></rect><rect x="380.2" y="393.92" width="19.19" height="0.25" style="fill:#ebebeb"></rect><rect x="100.47" y="390.89" width="43.19" height="0.25" style="fill:#ebebeb"></rect><rect x="79.46" y="390.89" width="15.44" height="0.25" style="fill:#ebebeb"></rect><rect x="131.47" y="395.11" width="54.2" height="0.25" style="fill:#ebebeb"></rect><path d="M237,337.8H43.91a5.71,5.71,0,0,1-5.7-5.71V60.66A5.71,5.71,0,0,1,43.91,55H237a5.71,5.71,0,0,1,5.71,5.71V332.09A5.71,5.71,0,0,1,237,337.8ZM43.91,55.2a5.46,5.46,0,0,0-5.45,5.46V332.09a5.46,5.46,0,0,0,5.45,5.46H237a5.47,5.47,0,0,0,5.46-5.46V60.66A5.47,5.47,0,0,0,237,55.2Z" style="fill:#ebebeb"></path><path d="M453.31,337.8H260.21a5.72,5.72,0,0,1-5.71-5.71V60.66A5.72,5.72,0,0,1,260.21,55h193.1A5.71,5.71,0,0,1,459,60.66V332.09A5.71,5.71,0,0,1,453.31,337.8ZM260.21,55.2a5.47,5.47,0,0,0-5.46,5.46V332.09a5.47,5.47,0,0,0,5.46,5.46h193.1a5.47,5.47,0,0,0,5.46-5.46V60.66a5.47,5.47,0,0,0-5.46-5.46Z" style="fill:#ebebeb"></path><rect x="94.5" y="84.73" width="97.17" height="124.47" transform="translate(286.17 293.93) rotate(180)" style="fill:#e6e6e6"></rect><rect x="89.26" y="84.73" width="101.41" height="124.47" transform="translate(279.94 293.93) rotate(180)" style="fill:#f0f0f0"></rect><rect x="82.42" y="100.94" width="115.11" height="92.05" transform="translate(286.93 7) rotate(90)" style="fill:#fff"></rect><polygon points="141.28 204.52 122.78 89.41 107.39 89.41 125.88 204.52 141.28 204.52" style="fill:#f5f5f5"></polygon><polygon points="154.17 204.52 135.68 89.41 128.94 89.41 147.44 204.52 154.17 204.52" style="fill:#f5f5f5"></polygon><rect x="36.68" y="146.68" width="115.11" height="0.57" transform="translate(241.2 52.74) rotate(90)" style="fill:#e6e6e6"></rect><rect x="280.29" y="84.18" width="155.62" height="132.46" transform="translate(716.21 300.83) rotate(180)" style="fill:#e6e6e6"></rect><rect x="275.21" y="84.18" width="158.33" height="132.46" transform="translate(708.76 300.83) rotate(180)" style="fill:#f0f0f0"></rect><rect x="280.29" y="216.64" width="155.62" height="9.44" transform="translate(716.21 442.72) rotate(180)" style="fill:#e6e6e6"></rect><rect x="266.75" y="216.64" width="158.33" height="9.44" transform="translate(691.83 442.72) rotate(180)" style="fill:#f0f0f0"></rect><rect x="295.26" y="78.36" width="118.24" height="144.11" transform="translate(504.79 -203.96) rotate(90)" style="fill:#fafafa"></rect><polygon points="334.69 209.53 323.3 91.3 303.6 91.3 314.99 209.53 334.69 209.53" style="fill:#fff"></polygon><path d="M423.14,169.45a.54.54,0,0,0,.54-.54v-73a.54.54,0,0,0-1.08,0v73A.54.54,0,0,0,423.14,169.45Z" style="fill:#f0f0f0"></path><polygon points="310.76 209.53 299.37 91.3 291.69 91.3 303.08 209.53 310.76 209.53" style="fill:#fff"></polygon><rect x="223.66" y="149.96" width="118.24" height="0.9" transform="translate(433.19 -132.36) rotate(90)" style="fill:#e6e6e6"></rect><polygon points="273.53 104.19 429.15 104.19 429.81 94.06 274.19 94.06 273.53 104.19" style="fill:#e0e0e0;opacity:0.5"></polygon><polygon points="273.53 120.84 429.15 120.84 429.81 110.71 274.19 110.71 273.53 120.84" style="fill:#e0e0e0;opacity:0.5"></polygon><polygon points="273.53 137.49 429.15 137.49 429.81 127.36 274.19 127.36 273.53 137.49" style="fill:#e0e0e0;opacity:0.5"></polygon><polygon points="273.53 154.14 429.15 154.14 429.81 144.01 274.19 144.01 273.53 154.14" style="fill:#e0e0e0;opacity:0.5"></polygon><polygon points="273.53 170.79 429.15 170.79 429.81 160.66 274.19 160.66 273.53 170.79" style="fill:#e0e0e0;opacity:0.5"></polygon><polygon points="273.53 187.44 429.15 187.44 429.81 177.31 274.19 177.31 273.53 187.44" style="fill:#e0e0e0;opacity:0.5"></polygon><path d="M338.56,318.05a.94.94,0,0,0-.93-.75h-36a.94.94,0,0,0-.93.75L287.92,382.4h1.94l12.54-63.21h34.46L349.4,382.4h1.93Z" style="fill:#f0f0f0"></path><path d="M408.29,318.05a.94.94,0,0,0-.93-.75h-36a.94.94,0,0,0-.93.75L357.64,382.4h1.94l12.54-63.21h34.46l12.54,63.21h1.94Z" style="fill:#f0f0f0"></path><path d="M409.31,310.1H296.05c-5.41,0-9.8,2.6-9.8,5.82v.2c0,1.17,1.6,2.12,3.58,2.12H415.54c2,0,3.57-.95,3.57-2.12v-.2C419.11,312.7,414.72,310.1,409.31,310.1Z" style="fill:#e0e0e0"></path><polygon points="416.25 263.43 341.36 263.43 330.5 307.65 405.39 307.65 416.25 263.43" style="fill:#e6e6e6"></polygon><polygon points="405.39 307.65 405.09 310.1 330.2 310.1 330.5 307.65 405.39 307.65" style="fill:#e6e6e6"></polygon><polygon points="413.94 263.43 339.05 263.43 328.2 307.65 403.09 307.65 413.94 263.43" style="fill:#f0f0f0"></polygon><polygon points="401.5 305.63 411.37 265.45 340.64 265.45 330.77 305.63 401.5 305.63" style="fill:#fff"></polygon><polygon points="383.57 307.65 383.27 310.1 300.8 310.1 301.1 307.65 383.57 307.65" style="fill:#f0f0f0"></polygon><rect x="202.26" y="316.78" width="25.71" height="5.7" style="fill:#e6e6e6"></rect><rect x="75.74" y="251.33" width="4.75" height="131.07" transform="translate(156.23 633.73) rotate(180)" style="fill:#e6e6e6"></rect><rect x="59.3" y="316.78" width="142.96" height="5.7" transform="translate(261.56 639.26) rotate(180)" style="fill:#f5f5f5"></rect><rect x="202.26" y="347.95" width="25.71" height="5.7" style="fill:#e6e6e6"></rect><rect x="59.3" y="347.95" width="142.96" height="5.7" transform="translate(261.56 701.59) rotate(180)" style="fill:#f5f5f5"></rect><rect x="202.26" y="254.45" width="25.71" height="5.7" style="fill:#e6e6e6"></rect><rect x="59.3" y="254.45" width="142.96" height="5.7" transform="translate(261.56 514.59) rotate(180)" style="fill:#f5f5f5"></rect><rect x="202.26" y="285.61" width="25.71" height="5.7" style="fill:#e6e6e6"></rect><rect x="59.3" y="285.61" width="142.96" height="5.7" transform="translate(261.56 576.92) rotate(180)" style="fill:#f5f5f5"></rect><rect x="218.7" y="251.33" width="4.75" height="131.07" transform="translate(442.15 633.73) rotate(180)" style="fill:#e6e6e6"></rect><rect x="197.51" y="251.33" width="4.75" height="131.07" transform="translate(399.77 633.73) rotate(180)" style="fill:#f5f5f5"></rect><rect x="59.3" y="251.33" width="4.75" height="131.07" transform="translate(123.34 633.73) rotate(180)" style="fill:#f5f5f5"></rect></g><g id="freepik--Shadow--inject-109"><ellipse id="freepik--path--inject-109" cx="250" cy="416.24" rx="193.89" ry="11.32" style="fill:#f5f5f5"></ellipse></g></svg>